<mxfile host="app.diagrams.net" agent="Mozilla/5.0 (Windows NT 10.0; Win64; x64) AppleWebKit/537.36 (KHTML, like Gecko) Chrome/134.0.0.0 Safari/537.36" version="26.1.0" pages="2">
  <diagram name="Page-1" id="13e1069c-82ec-6db2-03f1-153e76fe0fe0">
    <mxGraphModel dx="1434" dy="780" grid="1" gridSize="10" guides="1" tooltips="1" connect="1" arrows="1" fold="1" page="1" pageScale="1" pageWidth="1100" pageHeight="850" background="none" math="0" shadow="0">
      <root>
        <mxCell id="0" />
        <mxCell id="1" parent="0" />
        <mxCell id="_h0k9C9QZ6Pft_GURCV0-1" value="" style="rounded=0;whiteSpace=wrap;html=1;" vertex="1" parent="1">
          <mxGeometry x="60" y="10" width="620" height="580" as="geometry" />
        </mxCell>
        <mxCell id="7baba1c4bc27f4b0-2" value="ERP-web" style="shape=umlLifeline;perimeter=lifelinePerimeter;whiteSpace=wrap;html=1;container=1;collapsible=0;recursiveResize=0;outlineConnect=0;rounded=1;shadow=0;comic=0;labelBackgroundColor=none;strokeWidth=1;fontFamily=Verdana;fontSize=12;align=center;" parent="1" vertex="1">
          <mxGeometry x="240" y="80" width="100" height="480" as="geometry" />
        </mxCell>
        <mxCell id="7baba1c4bc27f4b0-10" value="" style="html=1;points=[];perimeter=orthogonalPerimeter;rounded=0;shadow=0;comic=0;labelBackgroundColor=none;strokeWidth=1;fontFamily=Verdana;fontSize=12;align=center;" parent="7baba1c4bc27f4b0-2" vertex="1">
          <mxGeometry x="45" y="100" width="10" height="280" as="geometry" />
        </mxCell>
        <mxCell id="aIbKxPWljuXMfkVyxfLI-2" value="提交结果" style="html=1;verticalAlign=bottom;endArrow=open;dashed=1;endSize=8;labelBackgroundColor=none;fontFamily=Verdana;fontSize=12;edgeStyle=elbowEdgeStyle;elbow=vertical;" parent="7baba1c4bc27f4b0-2" edge="1">
          <mxGeometry relative="1" as="geometry">
            <mxPoint x="-81" y="181" as="targetPoint" />
            <Array as="points">
              <mxPoint x="-16" y="181" />
              <mxPoint x="14" y="181" />
            </Array>
            <mxPoint x="39" y="181" as="sourcePoint" />
          </mxGeometry>
        </mxCell>
        <mxCell id="aIbKxPWljuXMfkVyxfLI-3" value="validateArgs()" style="html=1;verticalAlign=bottom;endArrow=block;labelBackgroundColor=none;fontFamily=Verdana;fontSize=12;elbow=vertical;edgeStyle=orthogonalEdgeStyle;curved=1;entryX=1;entryY=0.286;entryPerimeter=0;exitX=1.038;exitY=0.345;exitPerimeter=0;" parent="7baba1c4bc27f4b0-2" edge="1">
          <mxGeometry relative="1" as="geometry">
            <mxPoint x="55" y="130" as="sourcePoint" />
            <mxPoint x="60" y="168" as="targetPoint" />
            <Array as="points">
              <mxPoint x="110" y="130" />
              <mxPoint x="110" y="168" />
            </Array>
          </mxGeometry>
        </mxCell>
        <mxCell id="aIbKxPWljuXMfkVyxfLI-10" value="计算结果" style="html=1;verticalAlign=bottom;endArrow=open;dashed=1;endSize=8;labelBackgroundColor=none;fontFamily=Verdana;fontSize=12;edgeStyle=elbowEdgeStyle;elbow=vertical;entryX=1;entryY=0.929;entryDx=0;entryDy=0;entryPerimeter=0;" parent="7baba1c4bc27f4b0-2" target="7baba1c4bc27f4b0-9" edge="1">
          <mxGeometry relative="1" as="geometry">
            <mxPoint x="-104.5" y="360" as="targetPoint" />
            <Array as="points">
              <mxPoint x="-49.5" y="360" />
              <mxPoint x="-19.5" y="360" />
            </Array>
            <mxPoint x="45" y="360" as="sourcePoint" />
          </mxGeometry>
        </mxCell>
        <mxCell id="7baba1c4bc27f4b0-3" value="XBD-Engine" style="shape=umlLifeline;perimeter=lifelinePerimeter;whiteSpace=wrap;html=1;container=1;collapsible=0;recursiveResize=0;outlineConnect=0;rounded=1;shadow=0;comic=0;labelBackgroundColor=none;strokeWidth=1;fontFamily=Verdana;fontSize=12;align=center;" parent="1" vertex="1">
          <mxGeometry x="400" y="80" width="100" height="480" as="geometry" />
        </mxCell>
        <mxCell id="7baba1c4bc27f4b0-13" value="" style="html=1;points=[];perimeter=orthogonalPerimeter;rounded=0;shadow=0;comic=0;labelBackgroundColor=none;strokeWidth=1;fontFamily=Verdana;fontSize=12;align=center;" parent="7baba1c4bc27f4b0-3" vertex="1">
          <mxGeometry x="45" y="120" width="10" height="250" as="geometry" />
        </mxCell>
        <mxCell id="7baba1c4bc27f4b0-35" value="handleSaveStock()" style="html=1;verticalAlign=bottom;endArrow=block;labelBackgroundColor=none;fontFamily=Verdana;fontSize=12;elbow=vertical;edgeStyle=orthogonalEdgeStyle;curved=1;entryX=1;entryY=0.286;entryPerimeter=0;exitX=1.038;exitY=0.345;exitPerimeter=0;" parent="7baba1c4bc27f4b0-3" edge="1">
          <mxGeometry x="0.1581" y="10" relative="1" as="geometry">
            <mxPoint x="55.000000000000114" y="250.07999999999993" as="sourcePoint" />
            <mxPoint x="59.620000000000005" y="288" as="targetPoint" />
            <Array as="points">
              <mxPoint x="109.62" y="249.98000000000002" />
              <mxPoint x="109.62" y="287.98" />
            </Array>
            <mxPoint as="offset" />
          </mxGeometry>
        </mxCell>
        <mxCell id="7baba1c4bc27f4b0-34" value="" style="html=1;points=[];perimeter=orthogonalPerimeter;rounded=0;shadow=0;comic=0;labelBackgroundColor=none;strokeWidth=1;fontFamily=Verdana;fontSize=12;align=center;" parent="7baba1c4bc27f4b0-3" vertex="1">
          <mxGeometry x="49" y="272" width="10" height="53" as="geometry" />
        </mxCell>
        <mxCell id="aIbKxPWljuXMfkVyxfLI-4" value="handleCalcStock()" style="html=1;verticalAlign=bottom;endArrow=block;labelBackgroundColor=none;fontFamily=Verdana;fontSize=12;elbow=vertical;edgeStyle=orthogonalEdgeStyle;curved=1;" parent="7baba1c4bc27f4b0-3" edge="1">
          <mxGeometry x="0.1581" y="10" relative="1" as="geometry">
            <mxPoint x="60" y="307" as="sourcePoint" />
            <mxPoint x="55" y="345" as="targetPoint" />
            <Array as="points">
              <mxPoint x="104.62" y="306.90000000000003" />
              <mxPoint x="104.62" y="344.90000000000003" />
            </Array>
            <mxPoint as="offset" />
          </mxGeometry>
        </mxCell>
        <mxCell id="7baba1c4bc27f4b0-4" value="YDY Open API" style="shape=umlLifeline;perimeter=lifelinePerimeter;whiteSpace=wrap;html=1;container=1;collapsible=0;recursiveResize=0;outlineConnect=0;rounded=1;shadow=0;comic=0;labelBackgroundColor=none;strokeWidth=1;fontFamily=Verdana;fontSize=12;align=center;" parent="1" vertex="1">
          <mxGeometry x="540" y="80" width="100" height="480" as="geometry" />
        </mxCell>
        <mxCell id="7baba1c4bc27f4b0-8" value="用户-运营" style="shape=umlLifeline;perimeter=lifelinePerimeter;whiteSpace=wrap;html=1;container=1;collapsible=0;recursiveResize=0;outlineConnect=0;rounded=1;shadow=0;comic=0;labelBackgroundColor=none;strokeWidth=1;fontFamily=Verdana;fontSize=12;align=center;" parent="1" vertex="1">
          <mxGeometry x="100" y="80" width="100" height="480" as="geometry" />
        </mxCell>
        <mxCell id="7baba1c4bc27f4b0-9" value="" style="html=1;points=[];perimeter=orthogonalPerimeter;rounded=0;shadow=0;comic=0;labelBackgroundColor=none;strokeWidth=1;fontFamily=Verdana;fontSize=12;align=center;" parent="7baba1c4bc27f4b0-8" vertex="1">
          <mxGeometry x="45" y="100" width="10" height="280" as="geometry" />
        </mxCell>
        <mxCell id="7baba1c4bc27f4b0-16" value="" style="html=1;points=[];perimeter=orthogonalPerimeter;rounded=0;shadow=0;comic=0;labelBackgroundColor=none;strokeWidth=1;fontFamily=Verdana;fontSize=12;align=center;" parent="1" vertex="1">
          <mxGeometry x="585" y="270" width="10" height="70" as="geometry" />
        </mxCell>
        <mxCell id="7baba1c4bc27f4b0-17" value="syncStock()" style="html=1;verticalAlign=bottom;endArrow=block;labelBackgroundColor=none;fontFamily=Verdana;fontSize=12;edgeStyle=elbowEdgeStyle;elbow=vertical;" parent="1" edge="1">
          <mxGeometry relative="1" as="geometry">
            <mxPoint x="455" y="274" as="sourcePoint" />
            <Array as="points">
              <mxPoint x="460" y="274" />
            </Array>
            <mxPoint x="585" y="274" as="targetPoint" />
          </mxGeometry>
        </mxCell>
        <mxCell id="7baba1c4bc27f4b0-11" value="导入Excel" style="html=1;verticalAlign=bottom;endArrow=block;entryX=0;entryY=0;labelBackgroundColor=none;fontFamily=Verdana;fontSize=12;edgeStyle=elbowEdgeStyle;elbow=vertical;" parent="1" source="7baba1c4bc27f4b0-9" target="7baba1c4bc27f4b0-10" edge="1">
          <mxGeometry relative="1" as="geometry">
            <mxPoint x="220" y="190" as="sourcePoint" />
          </mxGeometry>
        </mxCell>
        <mxCell id="7baba1c4bc27f4b0-14" value="handleImport()" style="html=1;verticalAlign=bottom;endArrow=block;entryX=0;entryY=0;labelBackgroundColor=none;fontFamily=Verdana;fontSize=12;edgeStyle=elbowEdgeStyle;elbow=vertical;" parent="1" source="7baba1c4bc27f4b0-10" target="7baba1c4bc27f4b0-13" edge="1">
          <mxGeometry relative="1" as="geometry">
            <mxPoint x="370" y="200" as="sourcePoint" />
          </mxGeometry>
        </mxCell>
        <mxCell id="7baba1c4bc27f4b0-41" value="ERP网页端" style="shape=note;whiteSpace=wrap;html=1;size=14;verticalAlign=top;align=left;spacingTop=-6;rounded=0;shadow=0;comic=0;labelBackgroundColor=none;strokeWidth=1;fontFamily=Verdana;fontSize=12" parent="1" vertex="1">
          <mxGeometry x="240" y="30" width="100" height="35" as="geometry" />
        </mxCell>
        <mxCell id="7baba1c4bc27f4b0-42" value="后台服务" style="shape=note;whiteSpace=wrap;html=1;size=14;verticalAlign=top;align=left;spacingTop=-6;rounded=0;shadow=0;comic=0;labelBackgroundColor=none;strokeWidth=1;fontFamily=Verdana;fontSize=12" parent="1" vertex="1">
          <mxGeometry x="400" y="30" width="100" height="35" as="geometry" />
        </mxCell>
        <mxCell id="7baba1c4bc27f4b0-43" value="三方仓库" style="shape=note;whiteSpace=wrap;html=1;size=14;verticalAlign=top;align=left;spacingTop=-6;rounded=0;shadow=0;comic=0;labelBackgroundColor=none;strokeWidth=1;fontFamily=Verdana;fontSize=12" parent="1" vertex="1">
          <mxGeometry x="540" y="30" width="100" height="35" as="geometry" />
        </mxCell>
        <mxCell id="aIbKxPWljuXMfkVyxfLI-1" value="Actor" style="shape=umlActor;verticalLabelPosition=bottom;verticalAlign=top;html=1;outlineConnect=0;" parent="1" vertex="1">
          <mxGeometry x="140" y="20" width="20" height="30" as="geometry" />
        </mxCell>
        <mxCell id="aIbKxPWljuXMfkVyxfLI-5" value="handleCalc()" style="html=1;verticalAlign=bottom;endArrow=block;entryX=0;entryY=0;labelBackgroundColor=none;fontFamily=Verdana;fontSize=12;edgeStyle=elbowEdgeStyle;elbow=vertical;" parent="1" edge="1">
          <mxGeometry relative="1" as="geometry">
            <mxPoint x="296" y="274" as="sourcePoint" />
            <mxPoint x="446" y="274" as="targetPoint" />
          </mxGeometry>
        </mxCell>
        <mxCell id="aIbKxPWljuXMfkVyxfLI-7" value="1、计算&lt;div&gt;2、修改可售库存&lt;/div&gt;" style="text;html=1;align=left;verticalAlign=middle;whiteSpace=wrap;rounded=0;fillColor=default;" parent="1" vertex="1">
          <mxGeometry x="320" y="280" width="110" height="30" as="geometry" />
        </mxCell>
        <mxCell id="aIbKxPWljuXMfkVyxfLI-8" value="return" style="html=1;verticalAlign=bottom;endArrow=open;dashed=1;endSize=8;labelBackgroundColor=none;fontFamily=Verdana;fontSize=12;edgeStyle=elbowEdgeStyle;elbow=vertical;entryX=0.5;entryY=0.314;entryDx=0;entryDy=0;entryPerimeter=0;" parent="1" edge="1">
          <mxGeometry relative="1" as="geometry">
            <mxPoint x="454" y="317.9000000000001" as="targetPoint" />
            <Array as="points">
              <mxPoint x="529" y="318" />
              <mxPoint x="559" y="318" />
            </Array>
            <mxPoint x="584" y="318" as="sourcePoint" />
          </mxGeometry>
        </mxCell>
        <mxCell id="aIbKxPWljuXMfkVyxfLI-9" value="计算结果" style="html=1;verticalAlign=bottom;endArrow=open;dashed=1;endSize=8;labelBackgroundColor=none;fontFamily=Verdana;fontSize=12;edgeStyle=elbowEdgeStyle;elbow=vertical;" parent="1" edge="1">
          <mxGeometry relative="1" as="geometry">
            <mxPoint x="294" y="440" as="targetPoint" />
            <Array as="points">
              <mxPoint x="349" y="440" />
              <mxPoint x="379" y="440" />
            </Array>
            <mxPoint x="443.5" y="440" as="sourcePoint" />
          </mxGeometry>
        </mxCell>
        <mxCell id="aIbKxPWljuXMfkVyxfLI-11" value="@Lock4J" style="text;html=1;align=center;verticalAlign=middle;whiteSpace=wrap;rounded=0;" parent="1" vertex="1">
          <mxGeometry x="487" y="278" width="60" height="15" as="geometry" />
        </mxCell>
        <mxCell id="aIbKxPWljuXMfkVyxfLI-12" value="Redis Cache" style="text;html=1;align=center;verticalAlign=middle;whiteSpace=wrap;rounded=0;" parent="1" vertex="1">
          <mxGeometry x="330" y="450" width="80" height="30" as="geometry" />
        </mxCell>
      </root>
    </mxGraphModel>
  </diagram>
  <diagram id="_jRf5VwnyGjxuFMuQo_2" name="第 2 页">
    <mxGraphModel dx="1434" dy="780" grid="1" gridSize="10" guides="1" tooltips="1" connect="1" arrows="1" fold="1" page="1" pageScale="1" pageWidth="1654" pageHeight="2336" math="0" shadow="0">
      <root>
        <mxCell id="0" />
        <mxCell id="1" parent="0" />
        <mxCell id="L0xVWbQqzOY9SG0yMH2W-64" value="" style="rounded=0;whiteSpace=wrap;html=1;" vertex="1" parent="1">
          <mxGeometry x="20" y="20" width="960" height="650" as="geometry" />
        </mxCell>
        <mxCell id="L0xVWbQqzOY9SG0yMH2W-1" value="ERP-web" style="shape=umlLifeline;perimeter=lifelinePerimeter;whiteSpace=wrap;html=1;container=1;collapsible=0;recursiveResize=0;outlineConnect=0;rounded=1;shadow=0;comic=0;labelBackgroundColor=none;strokeWidth=1;fontFamily=Verdana;fontSize=12;align=center;" vertex="1" parent="1">
          <mxGeometry x="170" y="118" width="100" height="522" as="geometry" />
        </mxCell>
        <mxCell id="L0xVWbQqzOY9SG0yMH2W-2" value="" style="html=1;points=[];perimeter=orthogonalPerimeter;rounded=0;shadow=0;comic=0;labelBackgroundColor=none;strokeWidth=1;fontFamily=Verdana;fontSize=12;align=center;" vertex="1" parent="L0xVWbQqzOY9SG0yMH2W-1">
          <mxGeometry x="45" y="70" width="10" height="410" as="geometry" />
        </mxCell>
        <mxCell id="L0xVWbQqzOY9SG0yMH2W-6" value="XBD-Engine" style="shape=umlLifeline;perimeter=lifelinePerimeter;whiteSpace=wrap;html=1;container=1;collapsible=0;recursiveResize=0;outlineConnect=0;rounded=1;shadow=0;comic=0;labelBackgroundColor=none;strokeWidth=1;fontFamily=Verdana;fontSize=12;align=center;" vertex="1" parent="1">
          <mxGeometry x="566" y="120" width="100" height="520" as="geometry" />
        </mxCell>
        <mxCell id="L0xVWbQqzOY9SG0yMH2W-7" value="" style="html=1;points=[];perimeter=orthogonalPerimeter;rounded=0;shadow=0;comic=0;labelBackgroundColor=none;strokeWidth=1;fontFamily=Verdana;fontSize=12;align=center;" vertex="1" parent="L0xVWbQqzOY9SG0yMH2W-6">
          <mxGeometry x="45" y="70" width="10" height="410" as="geometry" />
        </mxCell>
        <mxCell id="L0xVWbQqzOY9SG0yMH2W-8" value="handleCalc()" style="html=1;verticalAlign=bottom;endArrow=block;labelBackgroundColor=none;fontFamily=Verdana;fontSize=12;elbow=vertical;edgeStyle=orthogonalEdgeStyle;curved=1;entryX=1;entryY=0.286;entryPerimeter=0;exitX=1.038;exitY=0.345;exitPerimeter=0;" edge="1" parent="L0xVWbQqzOY9SG0yMH2W-6">
          <mxGeometry x="0.1581" y="10" relative="1" as="geometry">
            <mxPoint x="55.000000000000114" y="364.99999999999994" as="sourcePoint" />
            <mxPoint x="59.620000000000005" y="402.92" as="targetPoint" />
            <Array as="points">
              <mxPoint x="109.62" y="364.90000000000003" />
              <mxPoint x="109.62" y="402.90000000000003" />
            </Array>
            <mxPoint as="offset" />
          </mxGeometry>
        </mxCell>
        <mxCell id="L0xVWbQqzOY9SG0yMH2W-18" value="ERP网页端" style="shape=note;whiteSpace=wrap;html=1;size=14;verticalAlign=top;align=left;spacingTop=-6;rounded=0;shadow=0;comic=0;labelBackgroundColor=none;strokeWidth=1;fontFamily=Verdana;fontSize=12" vertex="1" parent="1">
          <mxGeometry x="170" y="68" width="100" height="35" as="geometry" />
        </mxCell>
        <mxCell id="L0xVWbQqzOY9SG0yMH2W-19" value="后台服务" style="shape=note;whiteSpace=wrap;html=1;size=14;verticalAlign=top;align=left;spacingTop=-6;rounded=0;shadow=0;comic=0;labelBackgroundColor=none;strokeWidth=1;fontFamily=Verdana;fontSize=12" vertex="1" parent="1">
          <mxGeometry x="566" y="70" width="100" height="35" as="geometry" />
        </mxCell>
        <mxCell id="L0xVWbQqzOY9SG0yMH2W-22" value="加载SKU库存" style="html=1;verticalAlign=bottom;endArrow=block;labelBackgroundColor=none;fontFamily=Verdana;fontSize=12;edgeStyle=elbowEdgeStyle;elbow=vertical;exitX=0.8;exitY=0.033;exitDx=0;exitDy=0;exitPerimeter=0;" edge="1" parent="1" source="L0xVWbQqzOY9SG0yMH2W-29" target="L0xVWbQqzOY9SG0yMH2W-6">
          <mxGeometry relative="1" as="geometry">
            <mxPoint x="389" y="200" as="sourcePoint" />
            <mxPoint x="590" y="200" as="targetPoint" />
          </mxGeometry>
        </mxCell>
        <mxCell id="L0xVWbQqzOY9SG0yMH2W-27" value="持久化数据" style="text;html=1;align=center;verticalAlign=middle;whiteSpace=wrap;rounded=0;" vertex="1" parent="1">
          <mxGeometry x="486" y="530" width="80" height="30" as="geometry" />
        </mxCell>
        <mxCell id="L0xVWbQqzOY9SG0yMH2W-28" value="MySQL" style="shape=umlLifeline;perimeter=lifelinePerimeter;whiteSpace=wrap;html=1;container=1;collapsible=0;recursiveResize=0;outlineConnect=0;rounded=1;shadow=0;comic=0;labelBackgroundColor=none;strokeWidth=1;fontFamily=Verdana;fontSize=12;align=center;" vertex="1" parent="1">
          <mxGeometry x="370" y="118" width="100" height="522" as="geometry" />
        </mxCell>
        <mxCell id="L0xVWbQqzOY9SG0yMH2W-29" value="" style="html=1;points=[];perimeter=orthogonalPerimeter;rounded=0;shadow=0;comic=0;labelBackgroundColor=none;strokeWidth=1;fontFamily=Verdana;fontSize=12;align=center;" vertex="1" parent="L0xVWbQqzOY9SG0yMH2W-28">
          <mxGeometry x="45" y="70" width="10" height="350" as="geometry" />
        </mxCell>
        <mxCell id="L0xVWbQqzOY9SG0yMH2W-33" value="后台服务" style="shape=note;whiteSpace=wrap;html=1;size=14;verticalAlign=top;align=left;spacingTop=-6;rounded=0;shadow=0;comic=0;labelBackgroundColor=none;strokeWidth=1;fontFamily=Verdana;fontSize=12" vertex="1" parent="1">
          <mxGeometry x="370" y="68" width="100" height="35" as="geometry" />
        </mxCell>
        <mxCell id="L0xVWbQqzOY9SG0yMH2W-41" value="Redis" style="shape=umlLifeline;perimeter=lifelinePerimeter;whiteSpace=wrap;html=1;container=1;collapsible=0;recursiveResize=0;outlineConnect=0;rounded=1;shadow=0;comic=0;labelBackgroundColor=none;strokeWidth=1;fontFamily=Verdana;fontSize=12;align=center;" vertex="1" parent="1">
          <mxGeometry x="773" y="118" width="100" height="522" as="geometry" />
        </mxCell>
        <mxCell id="L0xVWbQqzOY9SG0yMH2W-42" value="" style="html=1;points=[];perimeter=orthogonalPerimeter;rounded=0;shadow=0;comic=0;labelBackgroundColor=none;strokeWidth=1;fontFamily=Verdana;fontSize=12;align=center;" vertex="1" parent="L0xVWbQqzOY9SG0yMH2W-41">
          <mxGeometry x="45" y="80" width="10" height="360" as="geometry" />
        </mxCell>
        <mxCell id="L0xVWbQqzOY9SG0yMH2W-47" value="inventory:stock:&lt;div&gt;{warehouseId}:{skuId}&lt;/div&gt;" style="html=1;verticalAlign=bottom;endArrow=block;labelBackgroundColor=none;fontFamily=Verdana;fontSize=12;edgeStyle=elbowEdgeStyle;elbow=vertical;" edge="1" parent="L0xVWbQqzOY9SG0yMH2W-41">
          <mxGeometry relative="1" as="geometry">
            <mxPoint x="-152" y="83" as="sourcePoint" />
            <mxPoint x="42" y="83" as="targetPoint" />
          </mxGeometry>
        </mxCell>
        <mxCell id="L0xVWbQqzOY9SG0yMH2W-50" value="拉取队列，逐行计算" style="html=1;verticalAlign=bottom;endArrow=open;dashed=1;endSize=8;labelBackgroundColor=none;fontFamily=Verdana;fontSize=12;edgeStyle=elbowEdgeStyle;elbow=vertical;" edge="1" parent="L0xVWbQqzOY9SG0yMH2W-41">
          <mxGeometry relative="1" as="geometry">
            <mxPoint x="-149.5" y="354" as="targetPoint" />
            <Array as="points">
              <mxPoint x="-49.5" y="354" />
              <mxPoint x="-19.5" y="354" />
            </Array>
            <mxPoint x="45" y="354" as="sourcePoint" />
          </mxGeometry>
        </mxCell>
        <mxCell id="L0xVWbQqzOY9SG0yMH2W-46" value="缓存NoSQL" style="shape=note;whiteSpace=wrap;html=1;size=14;verticalAlign=top;align=left;spacingTop=-6;rounded=0;shadow=0;comic=0;labelBackgroundColor=none;strokeWidth=1;fontFamily=Verdana;fontSize=12" vertex="1" parent="1">
          <mxGeometry x="773" y="68" width="100" height="35" as="geometry" />
        </mxCell>
        <mxCell id="L0xVWbQqzOY9SG0yMH2W-48" value="组合 SKU 计算队列" style="html=1;verticalAlign=bottom;endArrow=block;labelBackgroundColor=none;fontFamily=Verdana;fontSize=12;elbow=vertical;edgeStyle=orthogonalEdgeStyle;curved=1;entryX=1;entryY=0.286;entryPerimeter=0;exitX=1.038;exitY=0.345;exitPerimeter=0;" edge="1" parent="1">
          <mxGeometry x="0.1581" y="10" relative="1" as="geometry">
            <mxPoint x="621.0000000000001" y="216.99999999999991" as="sourcePoint" />
            <mxPoint x="625.62" y="254.92" as="targetPoint" />
            <Array as="points">
              <mxPoint x="675.62" y="216.9" />
              <mxPoint x="675.62" y="254.9" />
            </Array>
            <mxPoint as="offset" />
          </mxGeometry>
        </mxCell>
        <mxCell id="L0xVWbQqzOY9SG0yMH2W-49" value="inventory:combination_stock" style="html=1;verticalAlign=bottom;endArrow=block;labelBackgroundColor=none;fontFamily=Verdana;fontSize=12;edgeStyle=elbowEdgeStyle;elbow=vertical;" edge="1" parent="1" target="L0xVWbQqzOY9SG0yMH2W-41">
          <mxGeometry relative="1" as="geometry">
            <mxPoint x="621" y="280" as="sourcePoint" />
            <mxPoint x="791" y="280" as="targetPoint" />
          </mxGeometry>
        </mxCell>
        <mxCell id="L0xVWbQqzOY9SG0yMH2W-52" value="increment" style="html=1;verticalAlign=bottom;endArrow=block;labelBackgroundColor=none;fontFamily=Verdana;fontSize=12;edgeStyle=elbowEdgeStyle;elbow=vertical;" edge="1" parent="1">
          <mxGeometry relative="1" as="geometry">
            <mxPoint x="620" y="540" as="sourcePoint" />
            <mxPoint x="820" y="540" as="targetPoint" />
          </mxGeometry>
        </mxCell>
        <mxCell id="L0xVWbQqzOY9SG0yMH2W-53" value="重算&lt;div&gt;reCacl()&lt;/div&gt;" style="html=1;verticalAlign=bottom;endArrow=block;labelBackgroundColor=none;fontFamily=Verdana;fontSize=12;edgeStyle=elbowEdgeStyle;elbow=vertical;" edge="1" parent="1">
          <mxGeometry relative="1" as="geometry">
            <mxPoint x="229" y="200" as="sourcePoint" />
            <mxPoint x="412" y="200" as="targetPoint" />
          </mxGeometry>
        </mxCell>
        <mxCell id="L0xVWbQqzOY9SG0yMH2W-55" value="重点问题：&lt;div&gt;1、重算需确认是否可同时改多项可售库存，如（组合A-2件、组合B-3件）？如是：则要变更交互、计算逻辑&lt;/div&gt;" style="shape=note;whiteSpace=wrap;html=1;backgroundOutline=1;darkOpacity=0.05;align=left;" vertex="1" parent="1">
          <mxGeometry x="50" y="220" width="160" height="100" as="geometry" />
        </mxCell>
        <mxCell id="L0xVWbQqzOY9SG0yMH2W-56" value="alt" style="shape=umlFrame;whiteSpace=wrap;html=1;pointerEvents=0;" vertex="1" parent="1">
          <mxGeometry x="540" y="320" width="330" height="130" as="geometry" />
        </mxCell>
        <mxCell id="L0xVWbQqzOY9SG0yMH2W-57" value="inventory:manual_adjusted_stock&lt;div&gt;:{combinationSkuId}&lt;/div&gt;" style="html=1;verticalAlign=bottom;endArrow=block;labelBackgroundColor=none;fontFamily=Verdana;fontSize=12;edgeStyle=elbowEdgeStyle;elbow=horizontal;" edge="1" parent="1">
          <mxGeometry relative="1" as="geometry">
            <mxPoint x="620" y="362" as="sourcePoint" />
            <mxPoint x="820" y="362" as="targetPoint" />
          </mxGeometry>
        </mxCell>
        <mxCell id="L0xVWbQqzOY9SG0yMH2W-58" value="拉手动调整表" style="html=1;verticalAlign=bottom;endArrow=open;dashed=1;endSize=8;labelBackgroundColor=none;fontFamily=Verdana;fontSize=12;edgeStyle=elbowEdgeStyle;elbow=vertical;" edge="1" parent="1">
          <mxGeometry relative="1" as="geometry">
            <mxPoint x="620" y="390" as="targetPoint" />
            <Array as="points">
              <mxPoint x="720" y="390" />
              <mxPoint x="750" y="390" />
            </Array>
            <mxPoint x="814.5" y="390" as="sourcePoint" />
          </mxGeometry>
        </mxCell>
        <mxCell id="L0xVWbQqzOY9SG0yMH2W-59" value="handleCalc()" style="html=1;verticalAlign=bottom;endArrow=block;labelBackgroundColor=none;fontFamily=Verdana;fontSize=12;elbow=vertical;edgeStyle=orthogonalEdgeStyle;curved=1;entryX=1;entryY=0.286;entryPerimeter=0;exitX=1.038;exitY=0.345;exitPerimeter=0;" edge="1" parent="1">
          <mxGeometry x="0.1581" y="10" relative="1" as="geometry">
            <mxPoint x="621.0000000000001" y="401.99999999999994" as="sourcePoint" />
            <mxPoint x="625.62" y="439.9200000000001" as="targetPoint" />
            <Array as="points">
              <mxPoint x="675.62" y="401.90000000000003" />
              <mxPoint x="675.62" y="439.9000000000001" />
            </Array>
            <mxPoint as="offset" />
          </mxGeometry>
        </mxCell>
        <mxCell id="L0xVWbQqzOY9SG0yMH2W-61" value="[重算]" style="text;html=1;align=center;verticalAlign=middle;whiteSpace=wrap;rounded=0;" vertex="1" parent="1">
          <mxGeometry x="547" y="361" width="60" height="30" as="geometry" />
        </mxCell>
        <mxCell id="L0xVWbQqzOY9SG0yMH2W-62" value="修改页面输入框值的时候" style="text;html=1;align=center;verticalAlign=middle;whiteSpace=wrap;rounded=0;" vertex="1" parent="1">
          <mxGeometry x="280" y="210" width="90" height="30" as="geometry" />
        </mxCell>
        <mxCell id="L0xVWbQqzOY9SG0yMH2W-54" value="页面刷新" style="html=1;verticalAlign=bottom;endArrow=open;dashed=1;endSize=8;labelBackgroundColor=none;fontFamily=Verdana;fontSize=12;edgeStyle=elbowEdgeStyle;elbow=vertical;" edge="1" parent="1">
          <mxGeometry relative="1" as="geometry">
            <mxPoint x="228.5" y="580" as="targetPoint" />
            <Array as="points">
              <mxPoint x="313.5" y="580" />
              <mxPoint x="343.5" y="580" />
            </Array>
            <mxPoint x="607" y="580" as="sourcePoint" />
          </mxGeometry>
        </mxCell>
        <mxCell id="L0xVWbQqzOY9SG0yMH2W-25" value="计算结果" style="html=1;verticalAlign=bottom;endArrow=open;dashed=1;endSize=8;labelBackgroundColor=none;fontFamily=Verdana;fontSize=12;edgeStyle=elbowEdgeStyle;elbow=vertical;" edge="1" parent="1">
          <mxGeometry relative="1" as="geometry">
            <mxPoint x="430" y="530" as="targetPoint" />
            <Array as="points">
              <mxPoint x="515" y="530" />
              <mxPoint x="545" y="530" />
            </Array>
            <mxPoint x="609.5" y="530" as="sourcePoint" />
          </mxGeometry>
        </mxCell>
      </root>
    </mxGraphModel>
  </diagram>
</mxfile>
